
<global>
amp_veltrack=0
ampeg_attack=0.01
ampeg_release=0.85
master-volume=12.0
</global>

<group>
group_label=PP
xf_cccurve=gain
xfin_hicc1=63
xfout_hicc1=127
xfout_locc1=64

<region>
hikey=B2
hivel=127
lokey=A#2
loop_end=304022
loop_mode=loop_continuous
loop_start=102737
loop_xfade=38202
lovel=1
pitch_keycenter=A#2
sample=Basses_Mmm_nonvib_PP_A#2.opus
tune=+11
</region>

<region>
hikey=B3
hivel=127
lokey=A#3
loop_end=304021
loop_mode=loop_continuous
loop_start=102737
loop_xfade=38202
lovel=1
offset=8956
pitch_keycenter=A#3
sample=Basses_Mmm_nonvib_PP_A#3.opus
tune=-5
</region>

<region>
hikey=C#3
hivel=127
lokey=C3
loop_end=304022
loop_mode=loop_continuous
loop_start=102737
loop_xfade=38202
lovel=1
offset=4327
pitch_keycenter=C3
sample=Basses_Mmm_nonvib_PP_C3.opus
tune=+10
</region>

<region>
hikey=C#4
hivel=127
lokey=C4
loop_end=304021
loop_mode=loop_continuous
loop_start=102737
loop_xfade=38202
lovel=1
offset=7070
sample=Basses_Mmm_nonvib_PP_C4.opus
tune=-4
</region>

<region>
hikey=D#2
hivel=127
lokey=G1
loop_end=304022
loop_mode=loop_continuous
loop_start=102737
loop_xfade=38202
lovel=1
offset=2149
pitch_keycenter=D2
sample=Basses_Mmm_nonvib_PP_D2.opus
tune=-3
</region>

<region>
hikey=D#3
hivel=127
lokey=D3
loop_end=304022
loop_mode=loop_continuous
loop_start=102737
loop_xfade=38202
lovel=1
offset=6789
pitch_keycenter=D3
sample=Basses_Mmm_nonvib_PP_D3.opus
tune=+4
</region>

<region>
hikey=G#4
hivel=127
lokey=D4
loop_end=300969
loop_mode=loop_continuous
loop_start=101705
loop_xfade=37819
lovel=1
pitch_keycenter=D4
sample=Basses_Mmm_nonvib_PP_D4.opus
tune=-4
</region>

<region>
hikey=F2
hivel=127
lokey=E2
loop_end=304022
loop_mode=loop_continuous
loop_start=102737
loop_xfade=38202
lovel=1
pitch_keycenter=E2
sample=Basses_Mmm_nonvib_PP_E2.opus
tune=+6
</region>

<region>
hikey=F3
hivel=127
lokey=E3
loop_end=304021
loop_mode=loop_continuous
loop_start=102737
loop_xfade=38202
lovel=1
offset=5904
pitch_keycenter=E3
sample=Basses_Mmm_nonvib_PP_E3.opus
tune=-6
</region>

<region>
hikey=G2
hivel=127
lokey=F#2
loop_end=304022
loop_mode=loop_continuous
loop_start=102737
loop_xfade=38202
lovel=1
offset=2745
pitch_keycenter=F#2
sample=Basses_Mmm_nonvib_PP_F#2.opus
tune=-3
</region>

<region>
hikey=G3
hivel=127
lokey=F#3
loop_end=304021
loop_mode=loop_continuous
loop_start=102737
loop_xfade=38202
lovel=1
offset=3004
pitch_keycenter=F#3
sample=Basses_Mmm_nonvib_PP_F#3.opus
tune=-3
</region>

<region>
hikey=A2
hivel=127
lokey=G#2
loop_end=304022
loop_mode=loop_continuous
loop_start=102737
loop_xfade=38202
lovel=1
offset=3127
pitch_keycenter=G#2
sample=Basses_Mmm_nonvib_PP_G#2.opus
tune=+14
</region>

<region>
hikey=A3
hivel=127
lokey=G#3
loop_end=304021
loop_mode=loop_continuous
loop_start=102737
loop_xfade=38202
lovel=1
offset=2449
pitch_keycenter=G#3
sample=Basses_Mmm_nonvib_PP_G#3.opus
tune=-3
</region>
</group>

<group>
group_label=FF
xf_cccurve=gain
xfin_hicc1=127
xfin_locc1=64
xfout_hicc1=127
xfout_locc1=127

<region>
hikey=B2
hivel=127
lokey=A#2
loop_end=304022
loop_mode=loop_continuous
loop_start=102737
loop_xfade=38202
lovel=1
offset=2760
pitch_keycenter=A#2
sample=Basses_Mmm_nonvib_FF_A#2.opus
tune=+2
</region>

<region>
hikey=B3
hivel=127
lokey=A#3
loop_end=303632
loop_mode=loop_continuous
loop_start=102605
loop_xfade=38153
lovel=1
offset=8263
pitch_keycenter=A#3
sample=Basses_Mmm_nonvib_FF_A#3.opus
tune=-7
</region>

<region>
hikey=C#3
hivel=127
lokey=C3
loop_end=304022
loop_mode=loop_continuous
loop_start=102737
loop_xfade=38202
lovel=1
offset=3526
pitch_keycenter=C3
sample=Basses_Mmm_nonvib_FF_C3.opus
tune=+16
</region>

<region>
hikey=C#4
hivel=127
lokey=C4
loop_end=302608
loop_mode=loop_continuous
loop_start=102259
loop_xfade=38025
lovel=1
offset=1776
sample=Basses_Mmm_nonvib_FF_C4.opus
</region>

<region>
hikey=D#2
hivel=127
lokey=G1
loop_end=304022
loop_mode=loop_continuous
loop_start=102737
loop_xfade=38202
lovel=1
offset=4084
pitch_keycenter=D2
sample=Basses_Mmm_nonvib_FF_D2.opus
tune=+2
</region>

<region>
hikey=D#3
hivel=127
lokey=D3
loop_end=304022
loop_mode=loop_continuous
loop_start=102737
loop_xfade=38202
lovel=1
offset=1619
pitch_keycenter=D3
sample=Basses_Mmm_nonvib_FF_D3.opus
tune=+11
</region>

<region>
hikey=G#4
hivel=127
lokey=D4
loop_end=295368
loop_mode=loop_continuous
loop_start=99813
loop_xfade=37115
lovel=1
offset=4203
pitch_keycenter=D4
sample=Basses_Mmm_nonvib_FF_D4.opus
tune=-3
</region>

<region>
hikey=F2
hivel=127
lokey=E2
loop_end=304022
loop_mode=loop_continuous
loop_start=102737
loop_xfade=38202
lovel=1
offset=6740
pitch_keycenter=E2
sample=Basses_Mmm_nonvib_FF_E2.opus
tune=+12
</region>

<region>
hikey=F3
hivel=127
lokey=E3
loop_end=304021
loop_mode=loop_continuous
loop_start=102737
loop_xfade=38202
lovel=1
offset=2965
pitch_keycenter=E3
sample=Basses_Mmm_nonvib_FF_E3.opus
tune=+10
</region>

<region>
hikey=G2
hivel=127
lokey=F#2
loop_end=303774
loop_mode=loop_continuous
loop_start=102653
loop_xfade=38171
lovel=1
offset=5896
pitch_keycenter=F#2
sample=Basses_Mmm_nonvib_FF_F#2.opus
tune=-2
</region>

<region>
hikey=G3
hivel=127
lokey=F#3
loop_end=304021
loop_mode=loop_continuous
loop_start=102737
loop_xfade=38202
lovel=1
offset=2871
pitch_keycenter=F#3
sample=Basses_Mmm_nonvib_FF_F#3.opus
tune=+11
</region>

<region>
hikey=A2
hivel=127
lokey=G#2
loop_end=304022
loop_mode=loop_continuous
loop_start=102737
loop_xfade=38202
lovel=1
offset=1032
pitch_keycenter=G#2
sample=Basses_Mmm_nonvib_FF_G#2.opus
tune=-9
</region>

<region>
hikey=A3
hivel=127
lokey=G#3
loop_end=304021
loop_mode=loop_continuous
loop_start=102737
loop_xfade=38202
lovel=1
offset=6109
pitch_keycenter=G#3
sample=Basses_Mmm_nonvib_FF_G#3.opus
tune=-6
</region>
</group>